<svg id="Capa_1" data-name="Capa 1" xmlns="http://www.w3.org/2000/svg" viewBox="0 0 200.38 167.63"><defs><style>.cls-1{fill:#d81a22;}.cls-2{fill:#898888;}</style></defs><title>bundesliga</title><path class="cls-1" d="M488.58,250a17,17,0,0,0,0,33.94c.36,0,.7,0,1.06,0v57.42a11.88,11.88,0,0,1-11.88,11.88H311.45a11.88,11.88,0,0,1-11.88-11.88V234.41a11.88,11.88,0,0,1,11.88-11.88H477.74a11.88,11.88,0,0,1,11.88,11.88V250Zm-141.86,64.9,2.31,6.7c-4-2-16.84,3.7-21.42,5.24a22.57,22.57,0,0,0-4.1-3,4.19,4.19,0,0,0-3.67.72c-.27-.17-.62-.63-1.2.22-.38.55-.19.67.2.94a13,13,0,0,0-.65,1.16c-.32-.09-.58-.44-1,.4s0,1,.42,1.15c-1.29,2.62-3.42,4.22-4.71,6.93-.41-.17-.71-.35-1.12.72-.29.76,0,.89.45,1.12a20.38,20.38,0,0,0-.49,2.15.65.65,0,0,0-.86.55c-.15,1.07,0,1.23.65,1.3,0,.47,0,1,0,1.53.37,1.58,1.78,1.9,2.6,1.27,4.4-3.36,7.79-5.57,10.28-7.35,6.54-.62,24.42-1.83,29.66-2.29,2.59.17,10.33-6.51,10.41-8.79a89.78,89.78,0,0,0-.24-10.63c-.21-2.78-.49-5.88-.75-10.33l1.22-.39.1-9.31,2.47.13a4.26,4.26,0,0,1,.27-1.05c6.34.69,18.26,2.57,26.2,2a4.7,4.7,0,0,1,3.86,1.55c2,1.7,16.83,3.27,29.2,3.34a7.58,7.58,0,0,0,4.87,4.92c.27.16.47,0,1.18-.34.39.42.62.64,1.35.26s.57-.58.37-1.05l.59-.37c.37.39.71.59,1.26.24s.61-.5.21-1.11c1.26-.82,8.5-6.25,8.5-6.25.26.27.42.41.58.38a2.67,2.67,0,0,0,1-.82c.09-.21-.11-.45-.34-.73l1.24-1c.21.28.39.44.56.39a1.5,1.5,0,0,0,.75-.72c.08-.17-.14-.45-.32-.71l.82-1c-.32-1.44-1.74-1.28-3-1.19-3.11.24-12,1.57-15.4,1.41-6.35-2.11-30.5-11.14-31.92-11.67a11.17,11.17,0,0,0-4.55-.69c-6.51-3.49-18.82-6.16-19.94-6.47-.33-.09-.2-.62-.3-1a61.92,61.92,0,0,0-9.7-.94,106,106,0,0,0,2-15.51,4.21,4.21,0,0,0,2,.74c1.53.16,3.12-.95,5.05-1.73,1-.41,1.15.19,1.73-.17,1.29-.8,1.93-3.14,3.84-4.56,1.21-1,2.46-.67,3-1.78.86-1.86.44-3.16.08-5.13-.54-3-1.18-5-3.54-6.87a8.41,8.41,0,0,0-5.77-2c-2.81,0-7.5,1.33-10.06,7.82a36,36,0,0,0-7-3.57c-5.57-2-23.09,1.86-25.06,2.77a11,11,0,0,1,.15,1.72s-2.14.07-3,1.29c-4.12,6-8.85,14.37-8.85,14.37a5.27,5.27,0,0,0-3.65,3.27c-.84,1.76-1.61,2-3.36,3.11-1.21.41-.77,1.74-.08,1.69a7.14,7.14,0,0,0,3.68-1.77c-.69,2.13-3.19,3.62-3.27,4.48.25,1.16,2.95,2.76,6.45.09a13,13,0,0,0,3.08-2.69c.44-.53.68-2.84,1.17-4.52.78-.36,6.7-5.75,11-10.06,0,0,8.73-1.76,12.89-2.41,0,0-3.23,1.54-6.46,2.65-5.39,20-5,28.84-2.14,29.75-2.2,4,2.87,20.2,5.54,27l1.32.22,1.5,4.31" transform="translate(-299.57 -222.53)"/><ellipse class="cls-2" cx="189.89" cy="44.59" rx="10.49" ry="10.78"/><path d="M300.76,367.48h10.31a5.77,5.77,0,0,1,4.25,1.68,5.58,5.58,0,0,1,1.55,4.12,4.73,4.73,0,0,1-1.42,3.48,4.85,4.85,0,0,1-1.93,1.16,6.18,6.18,0,0,1,2.45,1.42,5.25,5.25,0,0,1,1.55,3.87,6.48,6.48,0,0,1-1.93,4.77,6.3,6.3,0,0,1-4.64,1.55H300.76Zm3,2.45v6.83h7a3,3,0,0,0,2.19-.9,3.66,3.66,0,0,0,1-2.71,3.35,3.35,0,0,0-1-2.45,2.62,2.62,0,0,0-1.93-.77Zm0,9.28v7.86h6.57a4,4,0,0,0,3-1,4.22,4.22,0,0,0,.13-5.67,4.18,4.18,0,0,0-3.09-1.16Z" transform="translate(-299.57 -222.53)"/><path d="M321.9,367.48h3v15.47a4,4,0,0,0,1.16,3,6.71,6.71,0,0,0,8.25,0,4,4,0,0,0,1.16-3V367.48h3v15.6a6.28,6.28,0,0,1-1.8,4.64q-2.06,2.06-6.45,2.06t-6.45-2.06a6.27,6.27,0,0,1-1.8-4.64Z" transform="translate(-299.57 -222.53)"/><path d="M343,367.48h3.22l10.31,17.4v-17.4h3v22h-3.22L346,372.12v17.4h-3Z" transform="translate(-299.57 -222.53)"/><path d="M364.06,367.48h7.73a9,9,0,0,1,6.57,2.71q2.83,2.84,2.84,8.51,0,5.41-3,8.38a8.71,8.71,0,0,1-6.45,2.45h-7.73Zm3,2.45v17.14h4.64a5.41,5.41,0,0,0,4-1.55,9.24,9.24,0,0,0,2.45-6.83q0-4.64-2.32-7a5.68,5.68,0,0,0-4.12-1.8Z" transform="translate(-299.57 -222.53)"/><path d="M385.46,367.48h14.18v2.45H388.42v6.83h10.44v2.45H388.42v7.86h11.86v2.45H385.46Z" transform="translate(-299.57 -222.53)"/><path d="M406.21,369q1.8-1.8,5.54-1.8,4,0,6.06,2.06a5.82,5.82,0,0,1,1.8,4.25h-3a3.5,3.5,0,0,0-1-2.58A4.92,4.92,0,0,0,412,369.8q-2.71,0-3.74,1a2.84,2.84,0,0,0-.9,2.06,2.3,2.3,0,0,0,.52,1.68,6.86,6.86,0,0,0,2.32,1.29q3,1.29,6.7,3a5.46,5.46,0,0,1,1.93,1.29,4.58,4.58,0,0,1,1.42,3.35,6,6,0,0,1-1.8,4.38q-1.93,1.93-6.32,1.93a8.89,8.89,0,0,1-6.57-2.32,6.63,6.63,0,0,1-1.68-4.9h3a4.6,4.6,0,0,0,1,3.35,6,6,0,0,0,4.38,1.42,5.44,5.44,0,0,0,4-1.29,3,3,0,0,0,1-2.06,2.62,2.62,0,0,0-.77-1.93,7.18,7.18,0,0,0-2.06-1.29q-1.29-.64-3.35-1.55l-3.74-1.68a5,5,0,0,1-1.8-1.16,4.18,4.18,0,0,1-1.16-3.09A5.82,5.82,0,0,1,406.21,369Z" transform="translate(-299.57 -222.53)"/><path d="M437.74,389.92H424.21V367h4.74v19.22h8.8Z" transform="translate(-299.57 -222.53)"/><path d="M442,367h4.74v23H442Z" transform="translate(-299.57 -222.53)"/><path d="M470.35,389a23.15,23.15,0,0,1-7,1.13c-3.74,0-6.59-.9-8.67-2.81a11.67,11.67,0,0,1-3.33-8.71c0-7.76,5.54-11.91,12.61-11.91a15.07,15.07,0,0,1,5.76,1l-1,3.64a11.5,11.5,0,0,0-4.7-.84c-4.38,0-7.71,2.51-7.71,8.06,0,5.31,3,8,7.1,8a7,7,0,0,0,2.43-.33v-5.61h-3.55v-3.49h8.06Z" transform="translate(-299.57 -222.53)"/><path d="M493.64,389.92h-5l-1.76-6.06h-6.59l-1.7,6.06h-4.8l7-23h6Zm-7.39-9.4-1.47-5.22c-.38-1.43-.8-3.28-1.12-4.69h-.1c-.32,1.43-.74,3.31-1.09,4.66L481,380.52Z" transform="translate(-299.57 -222.53)"/></svg>