<?xml version="1.0" encoding="iso-8859-1"?>
<!-- Generator: Adobe Illustrator 19.0.0, SVG Export Plug-In . SVG Version: 6.00 Build 0)  -->
<svg version="1.1" id="Capa_1" xmlns="http://www.w3.org/2000/svg" xmlns:xlink="http://www.w3.org/1999/xlink" x="0px" y="0px"
	 viewBox="0 0 512 512" style="enable-background:new 0 0 512 512;" xml:space="preserve">
<circle style="fill:#FFE733;" cx="256" cy="256" r="256"/>
<path style="fill:#F2D813;" d="M280.069,510.865c117.541-10.963,212.002-101.378,229.14-217.018l-75.27-75.27L222.54,265.784
	L103.333,146.578l-32.121,153l25.652,25.652l-2.082,0.348L280.069,510.865z"/>
<path style="fill:#595959;" d="M410.479,205.834l-199.146-59.257l0,0c0,18.778-15.222,34-34,34h-40c-18.778,0-34-15.222-34-34l0,0
	l-18.836,34.271c-18.51,33.678-21.371,73.764-7.831,109.729l0,0h380v-22.811C456.667,239.178,437.88,213.988,410.479,205.834z"/>
<path style="fill:#474747;" d="M456.667,267.767c0-28.589-18.786-53.779-46.188-61.932l-154.908-46.093v130.837h201.095
	L456.667,267.767L456.667,267.767z"/>
<g>
	<rect x="401.33" y="284.24" style="fill:#6E6E6E;" width="35.33" height="41.33"/>
	<rect x="335" y="284.24" style="fill:#6E6E6E;" width="35.33" height="41.33"/>
	<rect x="262.45" y="284.24" style="fill:#6E6E6E;" width="35.33" height="41.33"/>
</g>
<rect x="94.78" y="284.24" style="fill:#848484;" width="35.33" height="41.33"/>
<path style="fill:#636978;" d="M193.445,176.523l147.411,44.694c16.458,4.99,34.326,1.098,47.218-10.284l9.967-8.799
	l-186.708-55.556C211.333,159.525,204.095,170.781,193.445,176.523z"/>
<path style="fill:#555A66;" d="M255.571,159.741v35.618l85.285,25.858c16.458,4.99,34.326,1.098,47.218-10.284l9.967-8.799
	L255.571,159.741z"/>
<path style="fill:#636978;" d="M145.667,248.131c0-34.886-28.281-63.167-63.167-63.167c-0.054,0-0.107,0.004-0.162,0.004
	c-16.546,32.797-18.664,71.099-5.672,105.609l0,0h52.612C139.461,279.363,145.667,264.472,145.667,248.131z"/>
<rect x="71.21" y="272.08" style="fill:#474747;" width="385.45" height="27.5"/>
<rect x="255.57" y="272.08" style="fill:#383838;" width="201.09" height="27.5"/>
<g>
</g>
<g>
</g>
<g>
</g>
<g>
</g>
<g>
</g>
<g>
</g>
<g>
</g>
<g>
</g>
<g>
</g>
<g>
</g>
<g>
</g>
<g>
</g>
<g>
</g>
<g>
</g>
<g>
</g>
</svg>
