<?xml version="1.0" encoding="iso-8859-1"?>
<!-- Generator: Adobe Illustrator 19.0.0, SVG Export Plug-In . SVG Version: 6.00 Build 0)  -->
<svg version="1.1" id="Capa_1" xmlns="http://www.w3.org/2000/svg" xmlns:xlink="http://www.w3.org/1999/xlink" x="0px" y="0px"
	 viewBox="0 0 512 512" style="enable-background:new 0 0 512 512;" xml:space="preserve">
<circle style="fill:#78B22A;" cx="256" cy="256" r="256"/>
<path style="fill:#679C20;" d="M512,256c0-5.617-0.201-11.185-0.557-16.712l-116.04-116.039l-279.55,264.705l123.492,123.492
	C244.853,511.8,250.403,512,256,512C397.385,512,512,397.385,512,256z"/>
<circle style="fill:#FFFFFF;" cx="256" cy="256" r="192.5"/>
<path style="fill:#F0F0F0;" d="M256,63.5c-0.143,0-0.285,0.005-0.429,0.005v384.989c0.143,0,0.285,0.005,0.429,0.005
	c106.315,0,192.5-86.185,192.5-192.5S362.315,63.5,256,63.5z"/>
<polygon style="fill:#555A66;" points="256,176.7 181.667,230.706 210.059,318.09 301.941,318.09 330.333,230.706 "/>
<polygon style="fill:#414952;" points="330.333,230.706 256,176.7 255.571,177.011 255.571,318.09 301.941,318.09 "/>
<path style="fill:#555A66;" d="M186.11,76.588L256,127.367l69.89-50.778C304.224,68.142,280.655,63.5,256,63.5
	S207.776,68.142,186.11,76.588z"/>
<g>
	<path style="fill:#414952;" d="M325.89,76.588C304.224,68.142,280.655,63.5,256,63.5c-0.143,0-0.285,0.005-0.429,0.005v63.55
		l0.429,0.311L325.89,76.588z"/>
	<path style="fill:#414952;" d="M377.667,214.751l70.575,51.276c0.17-3.321,0.258-6.664,0.258-10.027
		c0-46.711-16.642-89.532-44.313-122.869L377.667,214.751z"/>
	<path style="fill:#414952;" d="M304.815,442.249c47.49-12.413,87.831-42.504,113.566-82.825h-86.654L304.815,442.249z"/>
</g>
<g>
	<path style="fill:#555A66;" d="M107.813,133.131C80.142,166.468,63.5,209.289,63.5,256c0,3.363,0.088,6.706,0.258,10.027
		l70.575-51.276L107.813,133.131z"/>
	<path style="fill:#555A66;" d="M180.274,359.424H93.62c25.735,40.321,66.076,70.412,113.566,82.825L180.274,359.424z"/>
</g>
<g>
</g>
<g>
</g>
<g>
</g>
<g>
</g>
<g>
</g>
<g>
</g>
<g>
</g>
<g>
</g>
<g>
</g>
<g>
</g>
<g>
</g>
<g>
</g>
<g>
</g>
<g>
</g>
<g>
</g>
</svg>
