<?xml version="1.0" encoding="iso-8859-1"?>
<!-- Generator: Adobe Illustrator 19.0.0, SVG Export Plug-In . SVG Version: 6.00 Build 0)  -->
<svg version="1.1" id="Capa_1" xmlns="http://www.w3.org/2000/svg" xmlns:xlink="http://www.w3.org/1999/xlink" x="0px" y="0px"
	 viewBox="0 0 512 512" style="enable-background:new 0 0 512 512;" xml:space="preserve">
<circle style="fill:#3D7ED9;" cx="256" cy="256" r="256"/>
<path style="fill:#466EB2;" d="M124.51,355.667l155.228,155.228c123.665-11.373,221.867-110.684,231.484-234.849L312.177,77
	L124.51,355.667z"/>
<g>
	<path style="fill:#EDC472;" d="M240.539,134.697L176,317.534l24.642,157.301l7.208,32.624C223.447,510.427,239.539,512,256,512
		c23.756,0,46.75-3.25,68.578-9.304l-10.263-30.528l56.116-178.571C376.88,273.075,373.826,256,355.853,238L240.539,134.697z"/>
	<path style="fill:#EDC472;" d="M240.539,134.697L176,317.534l24.642,157.301l7.208,32.624c15.461,2.943,31.41,4.509,47.721,4.537
		V148.164L240.539,134.697z"/>
</g>
<path style="fill:#E8BA64;" d="M355.853,238l-100.282-89.836v363.831c0.143,0,0.285,0.005,0.429,0.005
	c23.756,0,46.75-3.25,68.578-9.304l-10.263-30.528l56.116-178.571C376.881,273.074,373.827,256,355.853,238z"/>
<rect x="124.51" y="77" style="fill:#FFE733;" width="187.67" height="278.67"/>
<rect x="216.88" y="77" style="fill:#F2D813;" width="95.3" height="278.67"/>
<g>
	<path style="fill:#EDC472;" d="M280.4,397.335l-52.642,2.412l-8.131-165.986c-0.666-14.537,10.579-26.861,25.116-27.527l0,0
		c14.537-0.666,26.861,10.578,27.526,25.115L280.4,397.335z"/>
	<path style="fill:#EDC472;" d="M244.743,206.234L244.743,206.234c-14.537,0.666-25.781,12.99-25.115,27.527l8.131,165.986
		l27.813-1.274V208.028C252.228,206.714,248.564,206.06,244.743,206.234z"/>
</g>
<path style="fill:#E8BA64;" d="M272.27,231.35c-0.491-10.716-7.32-19.637-16.698-23.322v190.445l24.829-1.138L272.27,231.35z"/>
<g>
</g>
<g>
</g>
<g>
</g>
<g>
</g>
<g>
</g>
<g>
</g>
<g>
</g>
<g>
</g>
<g>
</g>
<g>
</g>
<g>
</g>
<g>
</g>
<g>
</g>
<g>
</g>
<g>
</g>
</svg>
