<svg id="Calque_1" data-name="Calque 1" xmlns="http://www.w3.org/2000/svg" xmlns:xlink="http://www.w3.org/1999/xlink" viewBox="0 0 676.43 787.27"><defs><style>.cls-1{fill:url(#radial-gradient);}.cls-2{fill:url(#radial-gradient-2);}.cls-3{fill:url(#radial-gradient-3);}.cls-4{fill:url(#radial-gradient-4);}.cls-5{fill:url(#radial-gradient-5);}.cls-6{fill:url(#radial-gradient-6);}.cls-7{fill:url(#radial-gradient-7);}.cls-8{fill:url(#radial-gradient-8);}.cls-9{fill:url(#radial-gradient-9);}.cls-10{fill:url(#radial-gradient-10);}.cls-11{fill:#465b65;}</style><radialGradient id="radial-gradient" cx="528.69" cy="905.13" r="454.8" gradientTransform="matrix(1, 0, 0, -1, 0, 1186.05)" gradientUnits="userSpaceOnUse"><stop offset="0" stop-color="#a7bdc8"/><stop offset="1" stop-color="#465b65"/></radialGradient><radialGradient id="radial-gradient-2" cx="528.7" cy="905.13" r="454.81" xlink:href="#radial-gradient"/><radialGradient id="radial-gradient-3" cx="528.69" cy="905.13" r="454.81" xlink:href="#radial-gradient"/><radialGradient id="radial-gradient-4" cx="528.69" cy="905.13" r="454.81" xlink:href="#radial-gradient"/><radialGradient id="radial-gradient-5" cx="528.69" cy="905.13" r="454.81" xlink:href="#radial-gradient"/><radialGradient id="radial-gradient-6" cx="528.7" cy="905.13" r="454.81" xlink:href="#radial-gradient"/><radialGradient id="radial-gradient-7" cx="528.7" cy="905.13" r="454.81" xlink:href="#radial-gradient"/><radialGradient id="radial-gradient-8" cx="528.69" cy="905.13" r="454.82" xlink:href="#radial-gradient"/><radialGradient id="radial-gradient-9" cx="528.7" cy="905.12" r="454.8" xlink:href="#radial-gradient"/><radialGradient id="radial-gradient-10" cx="528.69" cy="905.12" r="454.79" xlink:href="#radial-gradient"/></defs><title>ligue-1</title><path class="cls-1" d="M122,351.61c10.1-32.39,26-58.89,47.34-61.26,40.95-4.55,88.67,64.14,97,144.89,7.72,74.66-9.75,156.4-50.71,160.95-24.93,2.77-48-7.38-65.93-46.16,27.63,7.58,62.67-3.52,62.67-3.52C224.87,506.19,224.78,432,224.78,432c-25.59-67.69-53.49-98.76-53.49-98.76S143.11,339.64,122,351.61Z" transform="translate(-70.12 -122.19)"/><path class="cls-2" d="M154.8,508.5c-16.11,1.94-32.25-22-36-53.55s6.2-58.63,22.31-60.56,32.25,22,36,53.54S170.91,506.55,154.8,508.5Z" transform="translate(-70.12 -122.19)"/><path class="cls-3" d="M522.38,353.61C525.77,383.1,505,409.69,476,413s-55.21-17.88-58.58-47.37,17.37-56.07,46.34-59.4S519,324.13,522.38,353.61Z" transform="translate(-70.12 -122.19)"/><path class="cls-4" d="M618.73,343c-10.27-89.57-87.11-154.34-171.63-144.65S302.4,288.5,312.67,378.08c8.83,77,66.9,135.7,136.75,144.46,0,0-1.34-15.44-3.11-30.81s-3.92-30.37-3.92-30.37l-18.3,2S403,443.14,386.51,419.74c-15.4-21.9-26.23-47.12-26.23-47.12s7.8-27.68,18.12-53.16a537.53,537.53,0,0,1,23.49-49.64A491.41,491.41,0,0,1,452,261.07c27.2-3.11,55.32-3.33,55.32-3.33A344.12,344.12,0,0,1,542,298.9c16.15,22.95,29.07,49.54,29.07,49.54a240.47,240.47,0,0,1-13.83,50.85c-10.48,25.87-27.79,51.93-27.79,51.93L513,454s2.19,14.52,3.28,29.43c1.17,15.72,1.91,31.26,1.91,31.26C584.29,490.31,627.56,420,618.73,343Z" transform="translate(-70.12 -122.19)"/><path class="cls-5" d="M588,208.91c-38.89-35-71.11-62.46-70.65-64.14.22-.81,9.81,3.34,24.91,11.12a284.46,284.46,0,0,1,56.48,39c40.13,35.38,61.19,73.89,60.69,75.43C658.69,272.45,626.87,243.91,588,208.91Z" transform="translate(-70.12 -122.19)"/><path class="cls-6" d="M308.93,138.79a303,303,0,0,0-55.09,26c21.89-4.32,64.33-13.62,103.83-38.53C345.3,127.89,325.29,133.07,308.93,138.79Z" transform="translate(-70.12 -122.19)"/><path class="cls-7" d="M451.37,129.5c-1.52-4.43-28.21-8.9-62.35-6.76,6.89,1.2,14.16,3.29,19.06,6.41l-75.68,34-90.5,23.76s-5.44-.4-11.32-6.27c-23.5,17.93-38.44,34.06-38,37.86.88,7.75,62.53-6.57,134-31.14S453.9,136.88,451.37,129.5Z" transform="translate(-70.12 -122.19)"/><path class="cls-8" d="M654.89,447.79c9.32-66.33,22.77-120.62,29.3-118.36,4.06,1.4,21.19,59.29,11.68,126-7.93,55.66-34.32,114.9-45.48,114.23C643.48,569.22,645.54,514.12,654.89,447.79Z" transform="translate(-70.12 -122.19)"/><path class="cls-9" d="M357,697.75c-33.25-6.75-50-19.8-54.58-37.88-10.21-39.92,54.57-76.72,134.82-89,73.36-11.2,136.42,12.33,143.06,39.6,5.16,21.19-4.76,38.27-32.81,56.73,4.73-28.26,1.28-45.89,1.28-45.89-41.27-11-105.89-17-105.89-17-69.52,26.35-100.1,50.09-100.1,50.09S345.17,678,357,697.75Z" transform="translate(-70.12 -122.19)"/><path class="cls-10" d="M509.23,662.83c2.27,14.2-21.29,29.79-52.64,34.81S398,695.2,395.73,681,417,651.2,448.36,646.18,506.95,648.62,509.23,662.83Z" transform="translate(-70.12 -122.19)"/><path class="cls-11" d="M70.12,905.67V801.6H97.28V882h32.88v23.64h-60Z" transform="translate(-70.12 -122.19)"/><path class="cls-11" d="M174,905.67V801.6h27.17V905.67Z" transform="translate(-70.12 -122.19)"/><path class="cls-11" d="M300.12,797.79c20.92,0,36.27,8.15,47,26.08l-21.75,12s-7.06-14.39-25.54-14.39C282,821.44,274,836,274,854.85c0,17.66,8.15,31.79,28.25,31.79,11.55,0,22.15-8.83,23.09-18.48H301.47V846.43h52.17v5.71c0,30.84-14.26,57.33-53.26,57.33-33.15,0-54.34-25.4-54.34-55.7C246,821.84,269.82,797.79,300.12,797.79Z" transform="translate(-70.12 -122.19)"/><path class="cls-11" d="M424.69,801.6v63.86c0,13.85,8.43,18.75,18.74,18.75,9.92,0,18.48-5.3,18.48-17.39V801.6h27.45v66.58c0,23.77-16.18,40.48-46.47,40.48-22.95,0-45.37-12-45.37-37.5V801.59h27.17Z" transform="translate(-70.12 -122.19)"/><path class="cls-11" d="M539.76,801.6h60.33v23.64H566.94v16.85h31.25v23.09H566.94v17.39h33.69v23.1H539.76Z" transform="translate(-70.12 -122.19)"/><path class="cls-11" d="M704.42,801.6h42.12V905.67H719.37V823.88H704.42Z" transform="translate(-70.12 -122.19)"/></svg>